# Blender v2.79 (sub 0) OBJ File: 'speed_boat.blend'
# www.blender.org
mtllib speed_boat1.mtl
o Cube_Cube.001
v -0.997378 1.004200 1.005170
v -0.997378 1.004200 -0.994830
v 1.002622 1.004200 1.005170
v 1.002622 1.004200 -0.994830
v -0.997378 0.004200 1.005170
v -0.997378 1.004200 0.005170
v -0.997378 0.004200 -0.994830
v 0.002622 -0.995800 -0.994830
v 1.002622 0.004200 -0.994830
v 1.002622 1.004200 0.005170
v 1.002622 0.004200 1.005170
v 0.002622 -0.995800 1.005170
v 0.002622 -0.995800 0.005170
v -0.997378 0.004200 2.991040
v 1.002622 0.004200 0.005170
v -0.997378 0.004200 -3.207470
v -0.997378 0.004200 0.005170
v -0.997378 0.004200 2.011001
v -0.997378 1.004200 2.011001
v 1.002622 0.004200 2.011001
v 0.002622 -0.995800 2.011001
v 1.002622 1.004200 2.011001
v -0.997378 0.004200 3.867918
v -0.997378 1.004200 2.991040
v 1.002622 0.004200 2.991040
v 0.002622 -0.995800 2.991040
v 1.002622 1.004200 2.991040
v -0.688721 0.004200 4.757691
v -0.997378 1.004200 3.867918
v 1.002622 0.004200 3.867918
v 0.002622 -0.995800 3.867918
v 1.002622 1.004200 3.867918
v -0.688721 1.004200 4.757691
v 0.693965 0.004200 4.757691
v 0.002622 1.004200 6.066933
v 0.693965 1.004200 4.757691
v 0.002622 0.004200 6.066933
v -0.997378 0.004200 -1.950810
v 0.002622 -0.995800 -1.950810
v 1.002622 1.004200 -1.950810
v 1.002622 0.004200 -1.950810
v -0.997378 1.004200 -1.950810
v -0.997378 0.004200 -4.207470
v 0.002622 -0.995800 -3.207470
v 1.002622 1.004200 -3.207470
v 1.002622 0.004200 -3.207470
v -0.997378 1.004200 -3.207470
v 0.002622 -0.995800 -4.207470
v 0.002622 1.004200 -4.207470
v 1.002622 1.004200 -4.207470
v 1.002622 0.004200 -4.207470
v -0.997378 1.004200 -4.207470
v -0.897378 1.004200 0.005170
v -0.897378 1.004200 -0.994830
v -0.897378 1.793843 0.005170
v 0.902622 1.004200 -0.994830
v 0.902622 1.004200 0.005170
v 0.902622 1.004200 1.005170
v 0.902622 1.793843 -0.994830
v -0.897378 1.004200 1.005170
v 1.002622 1.793843 -0.994830
v 0.902622 1.004200 2.011001
v -0.997378 1.793843 1.005170
v 0.902622 1.004200 -1.950810
v -0.897378 1.004200 2.011001
v 1.002622 1.793843 1.005170
v -0.897378 1.004200 2.991040
v 0.902622 1.004200 2.991040
v 0.902622 1.004200 3.867918
v 1.002622 1.793843 0.005170
v -0.897378 1.004200 3.867918
v -0.619587 1.004200 4.757691
v 0.624830 1.004200 4.757691
v -0.997378 1.793843 -0.994830
v -0.897378 1.004200 -1.950810
v 0.902622 1.004200 -3.207470
v -0.997378 1.793843 0.005170
v -0.897378 1.004200 -3.207470
v 0.902622 1.004200 -4.207470
v -0.897378 1.004200 -4.207470
v -0.997378 0.004200 -4.309744
v 0.002622 -0.995800 -4.309744
v 0.002622 1.004200 -4.309744
v 1.002622 1.004200 -4.309744
v 1.002622 0.004200 -4.309744
v -0.997378 1.004200 -4.309744
v 0.002622 0.004200 -4.309744
v 0.002622 0.944313 3.696085
v 0.002622 0.944313 6.066933
v 0.624830 0.944313 4.757691
v -0.619587 0.944313 4.757691
v -0.798262 0.944313 0.104286
v -0.897378 0.944313 -0.994830
v 0.002622 0.944313 -0.994830
v 0.902622 0.944313 -0.994830
v 0.902622 0.944313 0.005170
v 0.902622 0.944313 1.005170
v -0.096494 0.944313 0.906054
v -0.798262 0.944313 0.906054
v -0.096494 0.944313 0.104286
v 0.902622 0.944313 2.011001
v 0.002622 0.944313 2.011001
v 0.902622 0.944313 -1.950810
v -0.897378 0.944313 2.011001
v 0.002622 0.944313 3.162873
v -0.309208 0.944313 3.162873
v 0.314452 0.944313 3.162873
v 0.314452 0.944313 3.696085
v -0.309208 0.944313 3.696085
v 0.002622 0.944313 -1.950810
v -0.897378 0.944313 -1.950810
v 0.724442 0.944313 -3.385651
v 0.002622 0.944313 -3.385651
v -0.719198 0.944313 -3.385651
v 0.724442 0.944313 -4.029290
v -0.719198 0.944313 -4.029290
v 0.002622 0.944313 -4.029290
v -0.897378 1.793843 1.005170
v -0.897378 1.793843 -0.994830
v 0.902622 1.793843 1.005170
v 0.902622 1.793843 0.005170
v -0.997378 2.636008 1.005170
v -0.997378 2.636008 0.005170
v 1.002622 2.636008 0.005170
v 1.002622 2.636008 1.005170
v -0.997378 2.636008 -0.994830
v 1.002622 2.636008 -0.994830
v 0.902622 2.636008 -0.994830
v -0.897378 2.636008 0.005170
v -0.897378 2.636008 1.005170
v -0.897378 2.636008 -0.994830
v 0.902622 2.636008 1.005170
v 0.902622 2.636008 0.005170
v -0.997378 2.733986 1.005170
v -0.997378 2.733986 0.005170
v 1.002622 2.733986 0.005170
v 1.002622 2.733986 1.005170
v -0.997378 2.733986 -0.994830
v 1.002622 2.733986 -0.994830
v 0.902622 2.733986 -0.994830
v -0.897378 2.733986 0.005170
v -0.897378 2.733986 1.005170
v -0.897378 2.733986 -0.994830
v 0.902622 2.733986 1.005170
v 0.902622 2.733986 0.005170
v 0.102622 2.636008 1.005170
v 0.102622 2.733986 1.005170
v 0.102622 2.636008 0.005170
v 0.102622 2.636008 -0.994830
v 0.102622 2.733986 0.005170
v 0.102622 2.733986 -0.994830
v 0.902622 2.636008 0.005170
v 0.902622 2.636008 1.005170
v 0.902622 2.636008 -0.994830
v 0.902622 2.733986 0.005170
v 0.902622 2.733986 1.005170
v 0.902622 2.733986 -0.994830
v 0.902622 2.636008 0.005170
v 0.902622 2.636008 1.005170
v 0.902622 2.636008 -0.994830
v 0.902622 2.733986 0.005170
v 0.902622 2.733986 1.005170
v 0.902622 2.733986 -0.994830
v 0.093265 2.636008 0.005170
v 0.093265 2.636008 1.005170
v 0.093265 2.636008 -0.994830
v 0.093265 2.733986 0.005170
v 0.093265 2.733986 1.005170
v 0.093265 2.733986 -0.994830
v 0.002622 0.944313 1.005170
v -0.897378 0.944313 1.005170
v -0.897378 0.944313 0.005170
v 0.002622 0.944313 0.005170
v -0.096494 1.944313 0.906054
v -0.798262 1.944313 0.906054
v -0.798262 1.688872 0.104286
v -0.096494 1.688872 0.104286
v 0.002622 0.944313 -3.207470
v 0.902622 0.944313 -3.207470
v -0.897378 0.944313 -3.207470
v 0.902622 0.944313 -4.207470
v -0.897378 0.944313 -4.207470
v 0.002622 0.944313 -4.207470
v 0.002622 1.365951 -4.029290
v 0.002622 1.365951 -3.385651
v 0.724442 1.365951 -3.385651
v -0.719198 1.365951 -3.385651
v 0.724442 1.365951 -4.029290
v -0.719198 1.365951 -4.029290
v 0.002622 0.944313 2.991040
v -0.897378 0.944313 2.991040
v 0.902622 0.944313 2.991040
v 0.902622 0.944313 3.867918
v -0.897378 0.944313 3.867918
v 0.002622 0.944313 3.867918
v 0.002622 1.125952 3.162873
v -0.309208 1.125952 3.162873
v 0.314452 1.125952 3.162873
v 0.314452 1.125952 3.696085
v -0.309208 1.125952 3.696085
v 0.002622 1.125952 3.696085
v -0.897378 2.636008 -1.179517
v -0.897378 2.733986 -1.179517
v 0.102622 2.733986 -1.179517
v 0.102622 2.636008 -1.179517
v 0.902622 2.636008 -1.179517
v 0.093265 2.636008 -1.179517
v 0.902622 2.733986 -1.179517
v 0.093265 2.733986 -1.179517
vn -1.0000 0.0000 0.0000
vn 1.0000 0.0000 0.0000
vn 0.7071 -0.7071 0.0000
vn 0.0000 1.0000 0.0000
vn 0.0000 0.0000 1.0000
vn -0.7071 -0.7071 0.0000
vn -0.9448 0.0000 0.3277
vn 0.6444 -0.7063 0.2931
vn -0.6444 -0.7063 0.2931
vn -0.8843 0.0000 0.4669
vn 0.8843 0.0000 0.4669
vn 0.9448 0.0000 0.3277
vn 0.0000 0.0000 -1.0000
vn -0.9032 0.0000 -0.4292
vn 0.9032 0.0000 -0.4292
vn -0.9546 0.0000 -0.2980
vn 0.9546 0.0000 -0.2980
vn 0.0000 -1.0000 0.0000
vn 0.0000 0.9528 -0.3036
usemtl None
s off
f 17//1 6//1 2//1 7//1
f 15//2 10//2 3//2 11//2
f 11//2 3//2 22//2 20//2
f 13//3 15//3 11//3 12//3
f 36//4 32//4 69//4 73//4
f 45//4 50//4 79//4 76//4
f 32//4 27//4 68//4 69//4
f 50//5 49//5 79//5
f 17//6 13//6 12//6 5//6
f 7//6 8//6 13//6 17//6
f 8//3 9//3 15//3 13//3
f 1//1 5//1 18//1 19//1
f 19//4 24//4 67//4 65//4
f 9//2 4//2 10//2 15//2
f 58//5 3//5 66//5 120//5
f 9//3 8//3 39//3 41//3
f 4//2 9//2 41//2 40//2
f 5//1 1//1 6//1 17//1
f 18//6 21//6 26//6 14//6
f 4//4 40//4 64//4 56//4
f 20//2 22//2 27//2 25//2
f 12//3 11//3 20//3 21//3
f 5//6 12//6 21//6 18//6
f 29//4 33//4 72//4 71//4
f 40//4 45//4 76//4 64//4
f 25//2 27//2 32//2 30//2
f 52//4 47//4 78//4 80//4
f 24//1 14//1 23//1 29//1
f 21//3 20//3 25//3 26//3
f 19//1 18//1 14//1 24//1
f 33//4 35//4 72//4
f 29//7 23//7 28//7 33//7
f 31//8 30//8 34//8 37//8
f 23//9 31//9 37//9 28//9
f 14//6 26//6 31//6 23//6
f 26//3 25//3 30//3 31//3
f 37//10 35//10 33//10 28//10
f 34//11 36//11 35//11 37//11
f 22//4 3//4 58//4 62//4
f 30//12 32//12 36//12 34//12
f 1//5 60//5 118//5 63//5
f 39//6 38//6 16//6 44//6
f 41//3 39//3 44//3 46//3
f 40//2 41//2 46//2 45//2
f 49//13 52//13 80//13
f 7//1 2//1 42//1 38//1
f 8//6 7//6 38//6 39//6
f 46//3 44//3 48//3 51//3
f 45//2 46//2 51//2 50//2
f 1//4 19//4 65//4 60//4
f 47//4 42//4 75//4 78//4
f 38//1 42//1 47//1 16//1
f 42//4 2//4 54//4 75//4
f 43//1 52//1 86//1 81//1
f 52//4 49//4 83//4 86//4
f 48//6 43//6 81//6 82//6
f 44//6 16//6 43//6 48//6
f 10//2 4//2 61//2 70//2
f 16//1 47//1 52//1 43//1
f 78//2 75//2 111//2 180//2
f 35//14 73//14 90//14 89//14
f 69//1 68//1 192//1 193//1
f 54//2 53//2 172//2 93//2
f 76//1 79//1 181//1 179//1
f 72//15 35//15 89//15 91//15
f 73//16 69//16 193//16 90//16
f 56//1 64//1 103//1 95//1
f 57//1 56//1 95//1 96//1
f 49//5 80//5 182//5 183//5
f 71//17 72//17 91//17 194//17
f 60//2 65//2 104//2 171//2
f 79//5 49//5 183//5 181//5
f 62//1 58//1 97//1 101//1
f 75//2 54//2 93//2 111//2
f 68//1 62//1 101//1 192//1
f 53//2 60//2 171//2 172//2
f 65//2 67//2 191//2 104//2
f 54//13 2//13 74//13 119//13
f 35//4 36//4 73//4
f 27//4 22//4 62//4 68//4
f 24//4 29//4 71//4 67//4
f 87//13 83//13 84//13 85//13
f 82//13 87//13 85//13
f 81//13 87//13 82//13
f 81//13 86//13 83//13 87//13
f 49//4 50//4 84//4 83//4
f 50//2 51//2 85//2 84//2
f 51//3 48//3 82//3 85//3
f 92//1 99//1 175//1 176//1
f 96//4 173//4 170//4 97//4
f 95//4 94//4 173//4 96//4
f 94//4 93//4 172//4 173//4
f 97//4 170//4 102//4 101//4
f 94//4 95//4 103//4 110//4
f 102//4 104//4 191//4 190//4
f 170//4 171//4 104//4 102//4
f 101//4 102//4 190//4 192//4
f 193//4 195//4 89//4 90//4
f 195//4 194//4 91//4 89//4
f 93//4 94//4 110//4 111//4
f 112//2 115//2 188//2 186//2
f 111//4 110//4 178//4 180//4
f 110//4 103//4 179//4 178//4
f 115//13 117//13 184//13 188//13
f 58//1 57//1 96//1 97//1
f 64//1 76//1 179//1 103//1
f 67//2 71//2 194//2 191//2
f 80//2 78//2 180//2 182//2
f 70//2 61//2 127//2 124//2
f 59//1 121//1 133//1 128//1
f 63//5 118//5 130//5 122//5
f 66//2 70//2 124//2 125//2
f 57//1 58//1 120//1 121//1
f 6//1 1//1 63//1 77//1
f 56//1 57//1 121//1 59//1
f 3//2 10//2 70//2 66//2
f 53//2 54//2 119//2 55//2
f 2//1 6//1 77//1 74//1
f 60//2 53//2 55//2 118//2
f 4//13 56//13 59//13 61//13
f 142//5 130//5 146//5 147//5
f 124//2 127//2 139//2 136//2
f 140//5 128//5 154//5 157//5
f 122//5 130//5 142//5 134//5
f 55//2 119//2 131//2 129//2
f 119//13 74//13 126//13 131//13
f 61//13 59//13 128//13 127//13
f 121//1 120//1 132//1 133//1
f 74//1 77//1 123//1 126//1
f 120//5 66//5 125//5 132//5
f 77//1 63//1 122//1 123//1
f 118//2 55//2 129//2 130//2
f 136//4 139//4 140//4 145//4
f 138//4 135//4 141//4 143//4
f 137//4 136//4 145//4 144//4
f 135//4 134//4 142//4 141//4
f 123//1 122//1 134//1 135//1
f 131//13 126//13 138//13 143//13
f 127//13 128//13 140//13 139//13
f 133//5 132//5 153//5 152//5
f 125//2 124//2 136//2 137//2
f 132//5 125//5 137//5 144//5
f 166//1 169//1 209//1 207//1
f 126//1 123//1 135//1 138//1
f 148//2 149//2 151//2 150//2
f 146//2 148//2 150//2 147//2
f 141//4 142//4 147//4 150//4
f 130//18 129//18 148//18 146//18
f 143//4 141//4 150//4 151//4
f 129//18 131//18 149//18 148//18
f 156//5 155//5 161//5 162//5
f 153//5 156//5 162//5 159//5
f 145//5 140//5 157//5 155//5
f 132//5 144//5 156//5 153//5
f 128//5 133//5 152//5 154//5
f 144//5 145//5 155//5 156//5
f 161//4 163//4 169//4 167//4
f 169//4 163//4 208//4 209//4
f 152//5 153//5 159//5 158//5
f 157//5 154//5 160//5 163//5
f 155//5 157//5 163//5 161//5
f 154//5 152//5 158//5 160//5
f 166//1 164//1 167//1 169//1
f 164//1 165//1 168//1 167//1
f 160//18 158//18 164//18 166//18
f 159//5 162//5 168//5 165//5
f 162//4 161//4 167//4 168//4
f 158//18 159//18 165//18 164//18
f 98//4 99//4 171//4 170//4
f 99//4 92//4 172//4 171//4
f 100//4 98//4 170//4 173//4
f 92//4 100//4 173//4 172//4
f 177//19 176//19 175//19 174//19
f 98//2 100//2 177//2 174//2
f 99//5 98//5 174//5 175//5
f 100//13 92//13 176//13 177//13
f 112//4 113//4 178//4 179//4
f 113//4 114//4 180//4 178//4
f 115//4 112//4 179//4 181//4
f 114//4 116//4 182//4 180//4
f 117//4 115//4 181//4 183//4
f 116//4 117//4 183//4 182//4
f 185//4 186//4 188//4 184//4
f 187//4 185//4 184//4 189//4
f 113//5 112//5 186//5 185//5
f 117//13 116//13 189//13 184//13
f 116//1 114//1 187//1 189//1
f 114//5 113//5 185//5 187//5
f 109//5 88//5 201//5 200//5
f 106//4 105//4 190//4 191//4
f 105//4 107//4 192//4 190//4
f 107//4 108//4 193//4 192//4
f 109//4 106//4 191//4 194//4
f 88//4 109//4 194//4 195//4
f 108//4 88//4 195//4 193//4
f 196//4 197//4 200//4 201//4 199//4 198//4
f 108//2 107//2 198//2 199//2
f 105//13 106//13 197//13 196//13
f 88//5 108//5 199//5 201//5
f 106//1 109//1 200//1 197//1
f 107//13 105//13 196//13 198//13
f 202//13 203//13 204//13 205//13
f 208//13 206//13 207//13 209//13
f 160//18 166//18 207//18 206//18
f 143//4 151//4 204//4 203//4
f 163//2 160//2 206//2 208//2
f 149//18 131//18 202//18 205//18
f 131//1 143//1 203//1 202//1
f 151//2 149//2 205//2 204//2
o col-only_Cube.000
v -0.997378 1.004200 1.005170
v -0.997378 1.004200 -0.994830
v 1.002622 1.004200 1.005170
v 1.002622 1.004200 -0.994830
v -0.997378 0.004200 1.005170
v -0.997378 1.004200 0.005170
v -0.997378 0.004200 -0.994830
v 0.002622 -0.995800 -0.994830
v 1.002622 0.004200 -0.994830
v 1.002622 1.004200 0.005170
v 1.002622 0.004200 1.005170
v 0.002622 -0.995800 1.005170
v 0.002622 -0.995800 0.005170
v -0.997378 0.004200 2.991040
v 1.002622 0.004200 0.005170
v -0.997378 0.004200 -3.207470
v -0.997378 0.004200 0.005170
v -0.997378 0.004200 2.011001
v -0.997378 1.004200 2.011001
v 1.002622 0.004200 2.011001
v 0.002622 -0.995800 2.011001
v 1.002622 1.004200 2.011001
v -0.997378 0.004200 3.867918
v -0.997378 1.004200 2.991040
v 1.002622 0.004200 2.991040
v 0.002622 -0.995800 2.991040
v 1.002622 1.004200 2.991040
v -0.688721 0.004200 4.757691
v -0.997378 1.004200 3.867918
v 1.002622 0.004200 3.867918
v 0.002622 -0.995800 3.867918
v 1.002622 1.004200 3.867918
v -0.688721 1.004200 4.757691
v 0.693965 0.004200 4.757691
v 0.002622 1.004200 6.066933
v 0.693965 1.004200 4.757691
v 0.002622 0.004200 6.066933
v -0.997378 0.004200 -1.950810
v 0.002622 -0.995800 -1.950810
v 1.002622 1.004200 -1.950810
v 1.002622 0.004200 -1.950810
v -0.997378 1.004200 -1.950810
v -0.997378 0.004200 -4.207470
v 0.002622 -0.995800 -3.207470
v 1.002622 1.004200 -3.207470
v 1.002622 0.004200 -3.207470
v -0.997378 1.004200 -3.207470
v 0.002622 -0.995800 -4.207470
v 0.002622 1.004200 -4.207470
v 1.002622 1.004200 -4.207470
v 1.002622 0.004200 -4.207470
v -0.997378 1.004200 -4.207470
v -0.897378 1.004200 0.005170
v -0.897378 1.004200 -0.994830
v -0.897378 1.793843 0.005170
v 0.902622 1.004200 -0.994830
v 0.902622 1.004200 0.005170
v 0.902622 1.004200 1.005170
v 0.902622 1.793843 -0.994830
v -0.897378 1.004200 1.005170
v 1.002622 1.793843 -0.994830
v 0.902622 1.004200 2.011001
v -0.997378 1.793843 1.005170
v 0.902622 1.004200 -1.950810
v -0.897378 1.004200 2.011001
v 1.002622 1.793843 1.005170
v -0.897378 1.004200 2.991040
v 0.902622 1.004200 2.991040
v 0.902622 1.004200 3.867918
v 1.002622 1.793843 0.005170
v -0.897378 1.004200 3.867918
v -0.619587 1.004200 4.757691
v 0.624830 1.004200 4.757691
v -0.997378 1.793843 -0.994830
v -0.897378 1.004200 -1.950810
v 0.902622 1.004200 -3.207470
v -0.997378 1.793843 0.005170
v -0.897378 1.004200 -3.207470
v 0.902622 1.004200 -4.207470
v -0.897378 1.004200 -4.207470
v -0.997378 0.004200 -4.309744
v 0.002622 -0.995800 -4.309744
v 0.002622 1.004200 -4.309744
v 1.002622 1.004200 -4.309744
v 1.002622 0.004200 -4.309744
v -0.997378 1.004200 -4.309744
v 0.002622 0.004200 -4.309744
v 0.002622 0.944313 3.696085
v 0.002622 0.944313 6.066933
v 0.624830 0.944313 4.757691
v -0.619587 0.944313 4.757691
v -0.798262 0.944313 0.104286
v -0.897378 0.944313 -0.994830
v 0.002622 0.944313 -0.994830
v 0.902622 0.944313 -0.994830
v 0.902622 0.944313 0.005170
v 0.902622 0.944313 1.005170
v -0.096494 0.944313 0.906054
v -0.798262 0.944313 0.906054
v -0.096494 0.944313 0.104286
v 0.902622 0.944313 2.011001
v 0.002622 0.944313 2.011001
v 0.902622 0.944313 -1.950810
v -0.897378 0.944313 2.011001
v 0.002622 0.944313 3.162873
v -0.309208 0.944313 3.162873
v 0.314452 0.944313 3.162873
v 0.314452 0.944313 3.696085
v -0.309208 0.944313 3.696085
v 0.002622 0.944313 -1.950810
v -0.897378 0.944313 -1.950810
v 0.724442 0.944313 -3.385651
v 0.002622 0.944313 -3.385651
v -0.719198 0.944313 -3.385651
v 0.724442 0.944313 -4.029290
v -0.719198 0.944313 -4.029290
v 0.002622 0.944313 -4.029290
v -0.897378 1.793843 1.005170
v -0.897378 1.793843 -0.994830
v 0.902622 1.793843 1.005170
v 0.902622 1.793843 0.005170
v -0.997378 2.636008 1.005170
v -0.997378 2.636008 0.005170
v 1.002622 2.636008 0.005170
v 1.002622 2.636008 1.005170
v -0.997378 2.636008 -0.994830
v 1.002622 2.636008 -0.994830
v 0.902622 2.636008 -0.994830
v -0.897378 2.636008 0.005170
v -0.897378 2.636008 1.005170
v -0.897378 2.636008 -0.994830
v 0.902622 2.636008 1.005170
v 0.902622 2.636008 0.005170
v -0.997378 2.733986 1.005170
v -0.997378 2.733986 0.005170
v 1.002622 2.733986 0.005170
v 1.002622 2.733986 1.005170
v -0.997378 2.733986 -0.994830
v 1.002622 2.733986 -0.994830
v 0.902622 2.733986 -0.994830
v -0.897378 2.733986 0.005170
v -0.897378 2.733986 1.005170
v -0.897378 2.733986 -0.994830
v 0.902622 2.733986 1.005170
v 0.902622 2.733986 0.005170
v 0.102622 2.636008 1.005170
v 0.102622 2.733986 1.005170
v 0.102622 2.636008 0.005170
v 0.102622 2.636008 -0.994830
v 0.102622 2.733986 0.005170
v 0.102622 2.733986 -0.994830
v 0.902622 2.636008 0.005170
v 0.902622 2.636008 1.005170
v 0.902622 2.636008 -0.994830
v 0.902622 2.733986 0.005170
v 0.902622 2.733986 1.005170
v 0.902622 2.733986 -0.994830
v 0.902622 2.636008 0.005170
v 0.902622 2.636008 1.005170
v 0.902622 2.636008 -0.994830
v 0.902622 2.733986 0.005170
v 0.902622 2.733986 1.005170
v 0.902622 2.733986 -0.994830
v 0.093265 2.636008 0.005170
v 0.093265 2.636008 1.005170
v 0.093265 2.636008 -0.994830
v 0.093265 2.733986 0.005170
v 0.093265 2.733986 1.005170
v 0.093265 2.733986 -0.994830
v 0.002622 0.944313 1.005170
v -0.897378 0.944313 1.005170
v -0.897378 0.944313 0.005170
v 0.002622 0.944313 0.005170
v -0.096494 1.944313 0.906054
v -0.798262 1.944313 0.906054
v -0.798262 1.688872 0.104286
v -0.096494 1.688872 0.104286
v 0.002622 0.944313 -3.207470
v 0.902622 0.944313 -3.207470
v -0.897378 0.944313 -3.207470
v 0.902622 0.944313 -4.207470
v -0.897378 0.944313 -4.207470
v 0.002622 0.944313 -4.207470
v 0.002622 1.365951 -4.029290
v 0.002622 1.365951 -3.385651
v 0.724442 1.365951 -3.385651
v -0.719198 1.365951 -3.385651
v 0.724442 1.365951 -4.029290
v -0.719198 1.365951 -4.029290
v 0.002622 0.944313 2.991040
v -0.897378 0.944313 2.991040
v 0.902622 0.944313 2.991040
v 0.902622 0.944313 3.867918
v -0.897378 0.944313 3.867918
v 0.002622 0.944313 3.867918
v 0.002622 1.125952 3.162873
v -0.309208 1.125952 3.162873
v 0.314452 1.125952 3.162873
v 0.314452 1.125952 3.696085
v -0.309208 1.125952 3.696085
v 0.002622 1.125952 3.696085
v -0.897378 2.636008 -1.179517
v -0.897378 2.733986 -1.179517
v 0.102622 2.733986 -1.179517
v 0.102622 2.636008 -1.179517
v 0.902622 2.636008 -1.179517
v 0.093265 2.636008 -1.179517
v 0.902622 2.733986 -1.179517
v 0.093265 2.733986 -1.179517
vn -1.0000 0.0000 0.0000
vn 1.0000 0.0000 0.0000
vn 0.7071 -0.7071 0.0000
vn 0.0000 1.0000 0.0000
vn 0.0000 0.0000 1.0000
vn -0.7071 -0.7071 0.0000
vn -0.9448 0.0000 0.3277
vn 0.6444 -0.7063 0.2931
vn -0.6444 -0.7063 0.2931
vn -0.8843 0.0000 0.4669
vn 0.8843 0.0000 0.4669
vn 0.9448 0.0000 0.3277
vn 0.0000 0.0000 -1.0000
vn -0.9032 0.0000 -0.4292
vn 0.9032 0.0000 -0.4292
vn -0.9546 0.0000 -0.2980
vn 0.9546 0.0000 -0.2980
vn 0.0000 -1.0000 0.0000
vn 0.0000 0.9528 -0.3036
usemtl None
s off
f 226//20 215//20 211//20 216//20
f 224//21 219//21 212//21 220//21
f 220//21 212//21 231//21 229//21
f 222//22 224//22 220//22 221//22
f 245//23 241//23 278//23 282//23
f 254//23 259//23 288//23 285//23
f 241//23 236//23 277//23 278//23
f 259//24 258//24 288//24
f 226//25 222//25 221//25 214//25
f 216//25 217//25 222//25 226//25
f 217//22 218//22 224//22 222//22
f 210//20 214//20 227//20 228//20
f 228//23 233//23 276//23 274//23
f 218//21 213//21 219//21 224//21
f 267//24 212//24 275//24 329//24
f 218//22 217//22 248//22 250//22
f 213//21 218//21 250//21 249//21
f 214//20 210//20 215//20 226//20
f 227//25 230//25 235//25 223//25
f 213//23 249//23 273//23 265//23
f 229//21 231//21 236//21 234//21
f 221//22 220//22 229//22 230//22
f 214//25 221//25 230//25 227//25
f 238//23 242//23 281//23 280//23
f 249//23 254//23 285//23 273//23
f 234//21 236//21 241//21 239//21
f 261//23 256//23 287//23 289//23
f 233//20 223//20 232//20 238//20
f 230//22 229//22 234//22 235//22
f 228//20 227//20 223//20 233//20
f 242//23 244//23 281//23
f 238//26 232//26 237//26 242//26
f 240//27 239//27 243//27 246//27
f 232//28 240//28 246//28 237//28
f 223//25 235//25 240//25 232//25
f 235//22 234//22 239//22 240//22
f 246//29 244//29 242//29 237//29
f 243//30 245//30 244//30 246//30
f 231//23 212//23 267//23 271//23
f 239//31 241//31 245//31 243//31
f 210//24 269//24 327//24 272//24
f 248//25 247//25 225//25 253//25
f 250//22 248//22 253//22 255//22
f 249//21 250//21 255//21 254//21
f 258//32 261//32 289//32
f 216//20 211//20 251//20 247//20
f 217//25 216//25 247//25 248//25
f 255//22 253//22 257//22 260//22
f 254//21 255//21 260//21 259//21
f 210//23 228//23 274//23 269//23
f 256//23 251//23 284//23 287//23
f 247//20 251//20 256//20 225//20
f 251//23 211//23 263//23 284//23
f 252//20 261//20 295//20 290//20
f 261//23 258//23 292//23 295//23
f 257//25 252//25 290//25 291//25
f 253//25 225//25 252//25 257//25
f 219//21 213//21 270//21 279//21
f 225//20 256//20 261//20 252//20
f 287//21 284//21 320//21 389//21
f 244//33 282//33 299//33 298//33
f 278//20 277//20 401//20 402//20
f 263//21 262//21 381//21 302//21
f 285//20 288//20 390//20 388//20
f 281//34 244//34 298//34 300//34
f 282//35 278//35 402//35 299//35
f 265//20 273//20 312//20 304//20
f 266//20 265//20 304//20 305//20
f 258//24 289//24 391//24 392//24
f 280//36 281//36 300//36 403//36
f 269//21 274//21 313//21 380//21
f 288//24 258//24 392//24 390//24
f 271//20 267//20 306//20 310//20
f 284//21 263//21 302//21 320//21
f 277//20 271//20 310//20 401//20
f 262//21 269//21 380//21 381//21
f 274//21 276//21 400//21 313//21
f 263//32 211//32 283//32 328//32
f 244//23 245//23 282//23
f 236//23 231//23 271//23 277//23
f 233//23 238//23 280//23 276//23
f 296//32 292//32 293//32 294//32
f 291//32 296//32 294//32
f 290//32 296//32 291//32
f 290//32 295//32 292//32 296//32
f 258//23 259//23 293//23 292//23
f 259//21 260//21 294//21 293//21
f 260//22 257//22 291//22 294//22
f 301//20 308//20 384//20 385//20
f 305//23 382//23 379//23 306//23
f 304//23 303//23 382//23 305//23
f 303//23 302//23 381//23 382//23
f 306//23 379//23 311//23 310//23
f 303//23 304//23 312//23 319//23
f 311//23 313//23 400//23 399//23
f 379//23 380//23 313//23 311//23
f 310//23 311//23 399//23 401//23
f 402//23 404//23 298//23 299//23
f 404//23 403//23 300//23 298//23
f 302//23 303//23 319//23 320//23
f 321//21 324//21 397//21 395//21
f 320//23 319//23 387//23 389//23
f 319//23 312//23 388//23 387//23
f 324//32 326//32 393//32 397//32
f 267//20 266//20 305//20 306//20
f 273//20 285//20 388//20 312//20
f 276//21 280//21 403//21 400//21
f 289//21 287//21 389//21 391//21
f 279//21 270//21 336//21 333//21
f 268//20 330//20 342//20 337//20
f 272//24 327//24 339//24 331//24
f 275//21 279//21 333//21 334//21
f 266//20 267//20 329//20 330//20
f 215//20 210//20 272//20 286//20
f 265//20 266//20 330//20 268//20
f 212//21 219//21 279//21 275//21
f 262//21 263//21 328//21 264//21
f 211//20 215//20 286//20 283//20
f 269//21 262//21 264//21 327//21
f 213//32 265//32 268//32 270//32
f 351//24 339//24 355//24 356//24
f 333//21 336//21 348//21 345//21
f 349//24 337//24 363//24 366//24
f 331//24 339//24 351//24 343//24
f 264//21 328//21 340//21 338//21
f 328//32 283//32 335//32 340//32
f 270//32 268//32 337//32 336//32
f 330//20 329//20 341//20 342//20
f 283//20 286//20 332//20 335//20
f 329//24 275//24 334//24 341//24
f 286//20 272//20 331//20 332//20
f 327//21 264//21 338//21 339//21
f 345//23 348//23 349//23 354//23
f 347//23 344//23 350//23 352//23
f 346//23 345//23 354//23 353//23
f 344//23 343//23 351//23 350//23
f 332//20 331//20 343//20 344//20
f 340//32 335//32 347//32 352//32
f 336//32 337//32 349//32 348//32
f 342//24 341//24 362//24 361//24
f 334//21 333//21 345//21 346//21
f 341//24 334//24 346//24 353//24
f 375//20 378//20 418//20 416//20
f 335//20 332//20 344//20 347//20
f 357//21 358//21 360//21 359//21
f 355//21 357//21 359//21 356//21
f 350//23 351//23 356//23 359//23
f 339//37 338//37 357//37 355//37
f 352//23 350//23 359//23 360//23
f 338//37 340//37 358//37 357//37
f 365//24 364//24 370//24 371//24
f 362//24 365//24 371//24 368//24
f 354//24 349//24 366//24 364//24
f 341//24 353//24 365//24 362//24
f 337//24 342//24 361//24 363//24
f 353//24 354//24 364//24 365//24
f 370//23 372//23 378//23 376//23
f 378//23 372//23 417//23 418//23
f 361//24 362//24 368//24 367//24
f 366//24 363//24 369//24 372//24
f 364//24 366//24 372//24 370//24
f 363//24 361//24 367//24 369//24
f 375//20 373//20 376//20 378//20
f 373//20 374//20 377//20 376//20
f 369//37 367//37 373//37 375//37
f 368//24 371//24 377//24 374//24
f 371//23 370//23 376//23 377//23
f 367//37 368//37 374//37 373//37
f 307//23 308//23 380//23 379//23
f 308//23 301//23 381//23 380//23
f 309//23 307//23 379//23 382//23
f 301//23 309//23 382//23 381//23
f 386//38 385//38 384//38 383//38
f 307//21 309//21 386//21 383//21
f 308//24 307//24 383//24 384//24
f 309//32 301//32 385//32 386//32
f 321//23 322//23 387//23 388//23
f 322//23 323//23 389//23 387//23
f 324//23 321//23 388//23 390//23
f 323//23 325//23 391//23 389//23
f 326//23 324//23 390//23 392//23
f 325//23 326//23 392//23 391//23
f 394//23 395//23 397//23 393//23
f 396//23 394//23 393//23 398//23
f 322//24 321//24 395//24 394//24
f 326//32 325//32 398//32 393//32
f 325//20 323//20 396//20 398//20
f 323//24 322//24 394//24 396//24
f 318//24 297//24 410//24 409//24
f 315//23 314//23 399//23 400//23
f 314//23 316//23 401//23 399//23
f 316//23 317//23 402//23 401//23
f 318//23 315//23 400//23 403//23
f 297//23 318//23 403//23 404//23
f 317//23 297//23 404//23 402//23
f 405//23 406//23 409//23 410//23 408//23 407//23
f 317//21 316//21 407//21 408//21
f 314//32 315//32 406//32 405//32
f 297//24 317//24 408//24 410//24
f 315//20 318//20 409//20 406//20
f 316//32 314//32 405//32 407//32
f 411//32 412//32 413//32 414//32
f 417//32 415//32 416//32 418//32
f 369//37 375//37 416//37 415//37
f 352//23 360//23 413//23 412//23
f 372//21 369//21 415//21 417//21
f 358//37 340//37 411//37 414//37
f 340//20 352//20 412//20 411//20
f 360//21 358//21 414//21 413//21
