# Blender v2.79 (sub 0) OBJ File: 'speed_boat.blend'
# www.blender.org
mtllib speed_boat.mtl
o Cube_Cube.001
v -0.997378 1.004200 1.005170
v -0.997378 1.004200 -0.994830
v 1.002622 1.004200 1.005170
v 1.002622 1.004200 -0.994830
v -0.997378 0.004200 1.005170
v -0.997378 1.004200 0.005170
v -0.997378 0.004200 -0.994830
v 0.002622 -0.995800 -0.994830
v 1.002622 0.004200 -0.994830
v 1.002622 1.004200 0.005170
v 1.002622 0.004200 1.005170
v 0.002622 -0.995800 1.005170
v 0.002622 -0.995800 0.005170
v -0.997378 0.004200 2.991040
v 1.002622 0.004200 0.005170
v -0.997378 0.004200 -3.207470
v -0.997378 0.004200 0.005170
v -0.997378 0.004200 2.011001
v -0.997378 1.004200 2.011001
v 1.002622 0.004200 2.011001
v 0.002622 -0.995800 2.011001
v 1.002622 1.004200 2.011001
v -0.997378 0.004200 3.867918
v -0.997378 1.004200 2.991040
v 1.002622 0.004200 2.991040
v 0.002622 -0.995800 2.991040
v 1.002622 1.004200 2.991040
v -0.688721 0.004200 4.757691
v -0.997378 1.004200 3.867918
v 1.002622 0.004200 3.867918
v 0.002622 -0.995800 3.867918
v 1.002622 1.004200 3.867918
v -0.688721 1.004200 4.757691
v 0.693965 0.004200 4.757691
v 0.002622 1.004200 6.066933
v 0.693965 1.004200 4.757691
v 0.002622 0.004200 6.066933
v -0.997378 0.004200 -1.950810
v 0.002622 -0.995800 -1.950810
v 1.002622 1.004200 -1.950810
v 1.002622 0.004200 -1.950810
v -0.997378 1.004200 -1.950810
v -0.997378 0.004200 -4.207470
v 0.002622 -0.995800 -3.207470
v 1.002622 1.004200 -3.207470
v 1.002622 0.004200 -3.207470
v -0.997378 1.004200 -3.207470
v 0.002622 -0.995800 -4.207470
v 0.002622 1.004200 -4.207470
v 1.002622 1.004200 -4.207470
v 1.002622 0.004200 -4.207470
v -0.997378 1.004200 -4.207470
v -0.897378 1.004200 0.005170
v -0.897378 1.004200 -0.994830
v -0.897378 1.793843 0.005170
v 0.902622 1.004200 -0.994830
v 0.902622 1.004200 0.005170
v 0.902622 1.004200 1.005170
v 0.902622 1.793843 -0.994830
v -0.897378 1.004200 1.005170
v 1.002622 1.793843 -0.994830
v 0.902622 1.004200 2.011001
v -0.997378 1.793843 1.005170
v 0.902622 1.004200 -1.950810
v -0.897378 1.004200 2.011001
v 1.002622 1.793843 1.005170
v -0.897378 1.004200 2.991040
v 0.902622 1.004200 2.991040
v 0.902622 1.004200 3.867918
v 1.002622 1.793843 0.005170
v -0.897378 1.004200 3.867918
v -0.619587 1.004200 4.757691
v 0.624830 1.004200 4.757691
v -0.997378 1.793843 -0.994830
v -0.897378 1.004200 -1.950810
v 0.902622 1.004200 -3.207470
v -0.997378 1.793843 0.005170
v -0.897378 1.004200 -3.207470
v 0.902622 1.004200 -4.207470
v -0.897378 1.004200 -4.207470
v -0.997378 0.004200 -4.309744
v 0.002622 -0.995800 -4.309744
v 0.002622 1.004200 -4.309744
v 1.002622 1.004200 -4.309744
v 1.002622 0.004200 -4.309744
v -0.997378 1.004200 -4.309744
v 0.002622 0.004200 -4.309744
v 0.002622 0.944313 3.696085
v 0.002622 0.944313 6.066933
v 0.624830 0.944313 4.757691
v -0.619587 0.944313 4.757691
v -0.798262 0.944313 0.104286
v -0.897378 0.944313 -0.994830
v 0.002622 0.944313 -0.994830
v 0.902622 0.944313 -0.994830
v 0.902622 0.944313 0.005170
v 0.902622 0.944313 1.005170
v -0.096494 0.944313 0.906054
v -0.798262 0.944313 0.906054
v -0.096494 0.944313 0.104286
v 0.902622 0.944313 2.011001
v 0.002622 0.944313 2.011001
v 0.902622 0.944313 -1.950810
v -0.897378 0.944313 2.011001
v 0.002622 0.944313 3.162873
v -0.309208 0.944313 3.162873
v 0.314452 0.944313 3.162873
v 0.314452 0.944313 3.696085
v -0.309208 0.944313 3.696085
v 0.002622 0.944313 -1.950810
v -0.897378 0.944313 -1.950810
v 0.724442 0.944313 -3.385651
v 0.002622 0.944313 -3.385651
v -0.719198 0.944313 -3.385651
v 0.724442 0.944313 -4.029290
v -0.719198 0.944313 -4.029290
v 0.002622 0.944313 -4.029290
v -0.897378 1.793843 1.005170
v -0.897378 1.793843 -0.994830
v 0.902622 1.793843 1.005170
v 0.902622 1.793843 0.005170
v -0.997378 2.636008 1.005170
v -0.997378 2.636008 0.005170
v 1.002622 2.636008 0.005170
v 1.002622 2.636008 1.005170
v -0.997378 2.636008 -0.994830
v 1.002622 2.636008 -0.994830
v 0.902622 2.636008 -0.994830
v -0.897378 2.636008 0.005170
v -0.897378 2.636008 1.005170
v -0.897378 2.636008 -0.994830
v 0.902622 2.636008 1.005170
v 0.902622 2.636008 0.005170
v -0.997378 2.733986 1.005170
v -0.997378 2.733986 0.005170
v 1.002622 2.733986 0.005170
v 1.002622 2.733986 1.005170
v -0.997378 2.733986 -0.994830
v 1.002622 2.733986 -0.994830
v 0.902622 2.733986 -0.994830
v -0.897378 2.733986 0.005170
v -0.897378 2.733986 1.005170
v -0.897378 2.733986 -0.994830
v 0.902622 2.733986 1.005170
v 0.902622 2.733986 0.005170
v 0.102622 2.636008 1.005170
v 0.102622 2.733986 1.005170
v 0.102622 2.636008 0.005170
v 0.102622 2.636008 -0.994830
v 0.102622 2.733986 0.005170
v 0.102622 2.733986 -0.994830
v 0.902622 2.636008 0.005170
v 0.902622 2.636008 1.005170
v 0.902622 2.636008 -0.994830
v 0.902622 2.733986 0.005170
v 0.902622 2.733986 1.005170
v 0.902622 2.733986 -0.994830
v 0.902622 2.636008 0.005170
v 0.902622 2.636008 1.005170
v 0.902622 2.636008 -0.994830
v 0.902622 2.733986 0.005170
v 0.902622 2.733986 1.005170
v 0.902622 2.733986 -0.994830
v 0.093265 2.636008 0.005170
v 0.093265 2.636008 1.005170
v 0.093265 2.636008 -0.994830
v 0.093265 2.733986 0.005170
v 0.093265 2.733986 1.005170
v 0.093265 2.733986 -0.994830
v 0.002622 0.944313 1.005170
v -0.897378 0.944313 1.005170
v -0.897378 0.944313 0.005170
v 0.002622 0.944313 0.005170
v -0.096494 1.944313 0.906054
v -0.798262 1.944313 0.906054
v -0.798262 1.688872 0.104286
v -0.096494 1.688872 0.104286
v 0.002622 0.944313 -3.207470
v 0.902622 0.944313 -3.207470
v -0.897378 0.944313 -3.207470
v 0.902622 0.944313 -4.207470
v -0.897378 0.944313 -4.207470
v 0.002622 0.944313 -4.207470
v 0.002622 1.365951 -4.029290
v 0.002622 1.365951 -3.385651
v 0.724442 1.365951 -3.385651
v -0.719198 1.365951 -3.385651
v 0.724442 1.365951 -4.029290
v -0.719198 1.365951 -4.029290
v 0.002622 0.944313 2.991040
v -0.897378 0.944313 2.991040
v 0.902622 0.944313 2.991040
v 0.902622 0.944313 3.867918
v -0.897378 0.944313 3.867918
v 0.002622 0.944313 3.867918
v 0.002622 1.125952 3.162873
v -0.309208 1.125952 3.162873
v 0.314452 1.125952 3.162873
v 0.314452 1.125952 3.696085
v -0.309208 1.125952 3.696085
v 0.002622 1.125952 3.696085
v -0.897378 2.636008 -1.179517
v -0.897378 2.733986 -1.179517
v 0.102622 2.733986 -1.179517
v 0.102622 2.636008 -1.179517
v 0.902622 2.636008 -1.179517
v 0.093265 2.636008 -1.179517
v 0.902622 2.733986 -1.179517
v 0.093265 2.733986 -1.179517
vn -1.0000 0.0000 0.0000
vn 1.0000 0.0000 0.0000
vn 0.7071 -0.7071 0.0000
vn 0.0000 1.0000 0.0000
vn 0.0000 0.0000 1.0000
vn -0.7071 -0.7071 0.0000
vn -0.9448 0.0000 0.3277
vn 0.6444 -0.7063 0.2931
vn -0.6444 -0.7063 0.2931
vn -0.8843 0.0000 0.4669
vn 0.8843 0.0000 0.4669
vn 0.9448 0.0000 0.3277
vn 0.0000 0.0000 -1.0000
vn -0.9032 0.0000 -0.4292
vn 0.9032 0.0000 -0.4292
vn -0.9546 0.0000 -0.2980
vn 0.9546 0.0000 -0.2980
vn 0.0000 -1.0000 0.0000
vn 0.0000 0.9528 -0.3036
usemtl None
s off
f 17//1 6//1 2//1 7//1
f 15//2 10//2 3//2 11//2
f 11//2 3//2 22//2 20//2
f 13//3 15//3 11//3 12//3
f 36//4 32//4 69//4 73//4
f 45//4 50//4 79//4 76//4
f 32//4 27//4 68//4 69//4
f 50//5 49//5 79//5
f 17//6 13//6 12//6 5//6
f 7//6 8//6 13//6 17//6
f 8//3 9//3 15//3 13//3
f 1//1 5//1 18//1 19//1
f 19//4 24//4 67//4 65//4
f 9//2 4//2 10//2 15//2
f 58//5 3//5 66//5 120//5
f 9//3 8//3 39//3 41//3
f 4//2 9//2 41//2 40//2
f 5//1 1//1 6//1 17//1
f 18//6 21//6 26//6 14//6
f 4//4 40//4 64//4 56//4
f 20//2 22//2 27//2 25//2
f 12//3 11//3 20//3 21//3
f 5//6 12//6 21//6 18//6
f 29//4 33//4 72//4 71//4
f 40//4 45//4 76//4 64//4
f 25//2 27//2 32//2 30//2
f 52//4 47//4 78//4 80//4
f 24//1 14//1 23//1 29//1
f 21//3 20//3 25//3 26//3
f 19//1 18//1 14//1 24//1
f 33//4 35//4 72//4
f 29//7 23//7 28//7 33//7
f 31//8 30//8 34//8 37//8
f 23//9 31//9 37//9 28//9
f 14//6 26//6 31//6 23//6
f 26//3 25//3 30//3 31//3
f 37//10 35//10 33//10 28//10
f 34//11 36//11 35//11 37//11
f 22//4 3//4 58//4 62//4
f 30//12 32//12 36//12 34//12
f 1//5 60//5 118//5 63//5
f 39//6 38//6 16//6 44//6
f 41//3 39//3 44//3 46//3
f 40//2 41//2 46//2 45//2
f 49//13 52//13 80//13
f 7//1 2//1 42//1 38//1
f 8//6 7//6 38//6 39//6
f 46//3 44//3 48//3 51//3
f 45//2 46//2 51//2 50//2
f 1//4 19//4 65//4 60//4
f 47//4 42//4 75//4 78//4
f 38//1 42//1 47//1 16//1
f 42//4 2//4 54//4 75//4
f 43//1 52//1 86//1 81//1
f 52//4 49//4 83//4 86//4
f 48//6 43//6 81//6 82//6
f 44//6 16//6 43//6 48//6
f 10//2 4//2 61//2 70//2
f 16//1 47//1 52//1 43//1
f 78//2 75//2 111//2 180//2
f 35//14 73//14 90//14 89//14
f 69//1 68//1 192//1 193//1
f 54//2 53//2 172//2 93//2
f 76//1 79//1 181//1 179//1
f 72//15 35//15 89//15 91//15
f 73//16 69//16 193//16 90//16
f 56//1 64//1 103//1 95//1
f 57//1 56//1 95//1 96//1
f 49//5 80//5 182//5 183//5
f 71//17 72//17 91//17 194//17
f 60//2 65//2 104//2 171//2
f 79//5 49//5 183//5 181//5
f 62//1 58//1 97//1 101//1
f 75//2 54//2 93//2 111//2
f 68//1 62//1 101//1 192//1
f 53//2 60//2 171//2 172//2
f 65//2 67//2 191//2 104//2
f 54//13 2//13 74//13 119//13
f 35//4 36//4 73//4
f 27//4 22//4 62//4 68//4
f 24//4 29//4 71//4 67//4
f 87//13 83//13 84//13 85//13
f 82//13 87//13 85//13
f 81//13 87//13 82//13
f 81//13 86//13 83//13 87//13
f 49//4 50//4 84//4 83//4
f 50//2 51//2 85//2 84//2
f 51//3 48//3 82//3 85//3
f 92//1 99//1 175//1 176//1
f 96//4 173//4 170//4 97//4
f 95//4 94//4 173//4 96//4
f 94//4 93//4 172//4 173//4
f 97//4 170//4 102//4 101//4
f 94//4 95//4 103//4 110//4
f 102//4 104//4 191//4 190//4
f 170//4 171//4 104//4 102//4
f 101//4 102//4 190//4 192//4
f 193//4 195//4 89//4 90//4
f 195//4 194//4 91//4 89//4
f 93//4 94//4 110//4 111//4
f 112//2 115//2 188//2 186//2
f 111//4 110//4 178//4 180//4
f 110//4 103//4 179//4 178//4
f 115//13 117//13 184//13 188//13
f 58//1 57//1 96//1 97//1
f 64//1 76//1 179//1 103//1
f 67//2 71//2 194//2 191//2
f 80//2 78//2 180//2 182//2
f 70//2 61//2 127//2 124//2
f 59//1 121//1 133//1 128//1
f 63//5 118//5 130//5 122//5
f 66//2 70//2 124//2 125//2
f 57//1 58//1 120//1 121//1
f 6//1 1//1 63//1 77//1
f 56//1 57//1 121//1 59//1
f 3//2 10//2 70//2 66//2
f 53//2 54//2 119//2 55//2
f 2//1 6//1 77//1 74//1
f 60//2 53//2 55//2 118//2
f 4//13 56//13 59//13 61//13
f 142//5 130//5 146//5 147//5
f 124//2 127//2 139//2 136//2
f 140//5 128//5 154//5 157//5
f 122//5 130//5 142//5 134//5
f 55//2 119//2 131//2 129//2
f 119//13 74//13 126//13 131//13
f 61//13 59//13 128//13 127//13
f 121//1 120//1 132//1 133//1
f 74//1 77//1 123//1 126//1
f 120//5 66//5 125//5 132//5
f 77//1 63//1 122//1 123//1
f 118//2 55//2 129//2 130//2
f 136//4 139//4 140//4 145//4
f 138//4 135//4 141//4 143//4
f 137//4 136//4 145//4 144//4
f 135//4 134//4 142//4 141//4
f 123//1 122//1 134//1 135//1
f 131//13 126//13 138//13 143//13
f 127//13 128//13 140//13 139//13
f 133//5 132//5 153//5 152//5
f 125//2 124//2 136//2 137//2
f 132//5 125//5 137//5 144//5
f 166//1 169//1 209//1 207//1
f 126//1 123//1 135//1 138//1
f 148//2 149//2 151//2 150//2
f 146//2 148//2 150//2 147//2
f 141//4 142//4 147//4 150//4
f 130//18 129//18 148//18 146//18
f 143//4 141//4 150//4 151//4
f 129//18 131//18 149//18 148//18
f 156//5 155//5 161//5 162//5
f 153//5 156//5 162//5 159//5
f 145//5 140//5 157//5 155//5
f 132//5 144//5 156//5 153//5
f 128//5 133//5 152//5 154//5
f 144//5 145//5 155//5 156//5
f 161//4 163//4 169//4 167//4
f 169//4 163//4 208//4 209//4
f 152//5 153//5 159//5 158//5
f 157//5 154//5 160//5 163//5
f 155//5 157//5 163//5 161//5
f 154//5 152//5 158//5 160//5
f 166//1 164//1 167//1 169//1
f 164//1 165//1 168//1 167//1
f 160//18 158//18 164//18 166//18
f 159//5 162//5 168//5 165//5
f 162//4 161//4 167//4 168//4
f 158//18 159//18 165//18 164//18
f 98//4 99//4 171//4 170//4
f 99//4 92//4 172//4 171//4
f 100//4 98//4 170//4 173//4
f 92//4 100//4 173//4 172//4
f 177//19 176//19 175//19 174//19
f 98//2 100//2 177//2 174//2
f 99//5 98//5 174//5 175//5
f 100//13 92//13 176//13 177//13
f 112//4 113//4 178//4 179//4
f 113//4 114//4 180//4 178//4
f 115//4 112//4 179//4 181//4
f 114//4 116//4 182//4 180//4
f 117//4 115//4 181//4 183//4
f 116//4 117//4 183//4 182//4
f 185//4 186//4 188//4 184//4
f 187//4 185//4 184//4 189//4
f 113//5 112//5 186//5 185//5
f 117//13 116//13 189//13 184//13
f 116//1 114//1 187//1 189//1
f 114//5 113//5 185//5 187//5
f 109//5 88//5 201//5 200//5
f 106//4 105//4 190//4 191//4
f 105//4 107//4 192//4 190//4
f 107//4 108//4 193//4 192//4
f 109//4 106//4 191//4 194//4
f 88//4 109//4 194//4 195//4
f 108//4 88//4 195//4 193//4
f 196//4 197//4 200//4 201//4 199//4 198//4
f 108//2 107//2 198//2 199//2
f 105//13 106//13 197//13 196//13
f 88//5 108//5 199//5 201//5
f 106//1 109//1 200//1 197//1
f 107//13 105//13 196//13 198//13
f 202//13 203//13 204//13 205//13
f 208//13 206//13 207//13 209//13
f 160//18 166//18 207//18 206//18
f 143//4 151//4 204//4 203//4
f 163//2 160//2 206//2 208//2
f 149//18 131//18 202//18 205//18
f 131//1 143//1 203//1 202//1
f 151//2 149//2 205//2 204//2
